<?xml version="1.0"?>
<svg xmlns="./favicon.svg" viewBox="0 0 64 64">
    <path d="M 5 12 C 3.3 12 2 13.3 2 15 L 2 51 C 2 52.7 3.3 54 5 54 L 38.363281 54 C 39.723281 59.724 44.865 64 51 64 C 58.168 64 64 58.168 64 51 C 64 46.41 61.602 42.3765 58 40.0625 L 58 18 L 58 16 L 58 15 C 58 13.3 56.7 12 55 12 L 5 12 z M 5 14 L 55 14 C 55.6 14 56 14.4 56 15 L 56 39.003906 C 54.46 38.359906 52.771 38 51 38 C 50.807 38 50.620687 38.021297 50.429688 38.029297 L 47.099609 34.699219 C 45.999609 33.599219 44.000391 33.599219 42.900391 34.699219 L 34.5 43.099609 L 31.099609 39.699219 C 29.999609 38.499219 28.100391 38.499219 26.900391 39.699219 L 18.599609 48 L 15.042969 48 C 14.417969 48 14 48.4 14 49 C 14 49.6 14.521969 50 15.042969 50 L 38.050781 50 C 38.024781 50.331 38 50.662 38 51 C 38 51.338 38.024781 51.669 38.050781 52 L 5 52 C 4.4 52 4 51.5 4 51 L 4 15 C 4 14.4 4.4 14 5 14 z M 17 16 C 16.4 16 16 16.447 16 17 L 16 19 C 16 19.552 16.4 20 17 20 C 17.6 20 18 19.553 18 19 L 18 17 C 18 16.447 17.6 16 17 16 z M 11.894531 17.335938 C 11.763656 17.353109 11.63 17.397656 11.5 17.472656 C 10.98 17.772656 10.858766 18.360844 11.134766 18.839844 L 12.134766 20.570312 C 12.321766 20.894313 12.655953 21.072266 13.001953 21.072266 C 13.130953 21.095266 13.327 21.0375 13.5 20.9375 C 14.02 20.6375 14.141234 20.049312 13.865234 19.570312 L 12.865234 17.839844 C 12.658234 17.480594 12.287156 17.284422 11.894531 17.335938 z M 22.107422 17.337891 C 21.714797 17.286375 21.343719 17.480594 21.136719 17.839844 L 20.136719 19.572266 C 19.859719 20.050266 19.981953 20.6375 20.501953 20.9375 C 20.674953 21.0375 20.872953 21.097219 21.001953 21.074219 C 21.348953 21.074219 21.683188 20.891266 21.867188 20.572266 L 22.867188 18.839844 C 23.143187 18.360844 23.021953 17.774609 22.501953 17.474609 C 22.371953 17.399609 22.238297 17.355062 22.107422 17.337891 z M 8.4648438 21.001953 C 8.0836094 20.944203 7.6976562 21.111953 7.4726562 21.501953 C 7.1726562 22.020953 7.3618437 22.590187 7.8398438 22.867188 L 9.5703125 23.867188 C 9.7303125 23.959187 9.8766875 24.042297 10.054688 24.029297 C 10.414687 24.006297 10.7375 23.847953 10.9375 23.501953 C 11.2375 22.981953 11.049312 22.410766 10.570312 22.134766 L 8.8398438 21.134766 C 8.7200938 21.065766 8.5919219 21.021203 8.4648438 21.001953 z M 25.533203 21.001953 C 25.406125 21.021203 25.279906 21.065766 25.160156 21.134766 L 23.427734 22.134766 C 22.949734 22.410766 22.7625 22.98 23.0625 23.5 C 23.2625 23.846 23.585313 24.006297 23.945312 24.029297 C 24.123313 24.042297 24.267734 23.957234 24.427734 23.865234 L 26.160156 22.865234 C 26.639156 22.589234 26.825391 22.02 26.525391 21.5 C 26.300391 21.11 25.914437 20.944203 25.533203 21.001953 z M 17.074219 22.007812 C 14.322219 22.007812 12.082031 24.248 12.082031 27 C 12.082031 29.752 14.322219 31.992188 17.074219 31.992188 C 19.826219 31.992188 22.066406 29.752 22.066406 27 C 22.066406 24.248 19.826219 22.007812 17.074219 22.007812 z M 17.074219 23.992188 C 18.738219 23.992188 20.082031 25.336 20.082031 27 C 20.082031 28.664 18.738219 30.007812 17.074219 30.007812 C 15.410219 30.007812 14.066406 28.664 14.066406 27 C 14.066406 25.336 15.410219 23.992188 17.074219 23.992188 z M 7 26 C 6.447 26 6 26.4 6 27 C 6 27.6 6.447 28 7 28 L 9 28 C 9.553 28 10 27.6 10 27 C 10 26.4 9.553 26 9 26 L 7 26 z M 25 26 C 24.447 26 24 26.4 24 27 C 24 27.6 24.447 28 25 28 L 27 28 C 27.553 28 28 27.6 28 27 C 28 26.4 27.553 26 27 26 L 25 26 z M 9.9453125 30.001953 C 9.8181563 30.021203 9.6900625 30.065766 9.5703125 30.134766 L 7.8398438 31.134766 C 7.3618438 31.410766 7.1726562 31.98 7.4726562 32.5 C 7.6726563 32.846 7.9954687 33.006297 8.3554688 33.029297 C 8.5334688 33.042297 8.6798437 32.957234 8.8398438 32.865234 L 10.570312 31.865234 C 11.049312 31.589234 11.2375 31.02 10.9375 30.5 C 10.71325 30.11 10.326781 29.944203 9.9453125 30.001953 z M 24.054688 30.001953 C 23.673453 29.944203 23.2875 30.11 23.0625 30.5 C 22.7625 31.02 22.948734 31.589234 23.427734 31.865234 L 25.160156 32.865234 C 25.320156 32.957234 25.464578 33.042297 25.642578 33.029297 C 26.002578 33.006297 26.325391 32.846 26.525391 32.5 C 26.825391 31.981 26.639156 31.411766 26.160156 31.134766 L 24.427734 30.134766 C 24.307984 30.065766 24.181766 30.021203 24.054688 30.001953 z M 13.105469 32.925781 C 12.712844 32.874266 12.341766 33.068484 12.134766 33.427734 L 11.134766 35.160156 C 10.858766 35.639156 10.98 36.225391 11.5 36.525391 C 11.673 36.625391 11.869047 36.685109 11.998047 36.662109 C 12.345047 36.662109 12.681234 36.479156 12.865234 36.160156 L 13.865234 34.427734 C 14.142234 33.949734 14.02 33.3625 13.5 33.0625 C 13.37 32.9875 13.236344 32.942953 13.105469 32.925781 z M 20.894531 32.925781 C 20.763656 32.942953 20.63 32.9875 20.5 33.0625 C 19.98 33.3625 19.858766 33.948734 20.134766 34.427734 L 21.134766 36.160156 C 21.321766 36.484156 21.655953 36.662109 22.001953 36.662109 C 22.130953 36.685109 22.327 36.625391 22.5 36.525391 C 23.02 36.225391 23.141234 35.639156 22.865234 35.160156 L 21.865234 33.427734 C 21.658234 33.068484 21.287156 32.874266 20.894531 32.925781 z M 17 34 C 16.4 34 16 34.447 16 35 L 16 37 C 16 37.553 16.4 38 17 38 C 17.6 38 18 37.553 18 37 L 18 35 C 18 34.447 17.6 34 17 34 z M 45 35.800781 C 45.25 35.800781 45.499219 35.899609 45.699219 36.099609 L 47.970703 38.371094 C 43.224703 39.510094 39.491281 43.25 38.363281 48 L 32.400391 48 L 44.300781 36.099609 C 44.500781 35.899609 44.75 35.800781 45 35.800781 z M 51 40 C 57.065 40 62 44.935 62 51 C 62 57.065 57.065 62 51 62 C 44.935 62 40 57.065 40 51 C 40 44.935 44.935 40 51 40 z M 29 40.800781 C 29.25 40.800781 29.499219 40.899609 29.699219 41.099609 L 33.099609 44.5 L 29.599609 48 L 21.400391 48 L 28.300781 41.099609 C 28.500781 40.899609 28.75 40.800781 29 40.800781 z M 51 44 C 50.448 44 50 44.448 50 45 L 50 50 L 45 50 C 44.448 50 44 50.448 44 51 C 44 51.552 44.448 52 45 52 L 50 52 L 50 57 C 50 57.552 50.448 58 51 58 C 51.552 58 52 57.552 52 57 L 52 52 L 57 52 C 57.552 52 58 51.552 58 51 C 58 50.448 57.552 50 57 50 L 52 50 L 52 45 C 52 44.448 51.552 44 51 44 z M 7 48 C 6.4 48 6 48.4 6 49 C 6 49.6 6.4 50 7 50 L 11 50 C 11.6 50 12 49.6 12 49 C 12 48.4 11.6 48 11 48 L 7 48 z"/>
</svg>
